<?xml version="1.0" encoding="UTF-8"?>
<svg version="1.1" viewBox="0 0 348.77 63.125" xml:space="preserve" xmlns="http://www.w3.org/2000/svg"><g transform="translate(-89.628 -57.567)"><path d="m177.76 57.567-5.7598 1.0801-3.8398 1.2871-4.1602 2.0156-4.4805 3.7773-1.3809 1.6348-1.3828 1.6348-0.37695 0.49805-0.3789 0.49805-2.002 3.8047-1.6465 5.1191-0.66602 3.7637-0.19726 3.3984-0.19922 3.3984 0.36328 3.1777 0.36328 3.1758 0.625 2.4453 0.62305 2.4453 1.6582 3.748 2.8223 4.3652 2.0898 2.0879 2.0898 2.0898 4.3164 2.7774 5.5293 2.0234 5.6699 0.91797 6.4004-0.10547 6.4004-0.10351 5.1191-1.3555 6.6797-3.2949 5.543-5.5137 2.2422-3.873 1.6484-4.127 0.49024-2.1289 0.49218-2.127 0.36914-3.6328 0.36719-3.6328-0.20898-3.3848-0.21094-3.3848-0.58398-2.8594-0.58594-2.8594-1.7774-4.4395-1.084-1.8516-1.0859-1.8516-1.8047-1.9492-1.8047-1.9492-3.9844-2.8418-4.373-1.9844-6.0879-1.6055zm45.279 0.99414 0.0215 0.51562 17.66 10.881 0.72656 0.69336 11.324 0.42774 3.0684 1.123 1.4394 2.8516v2.4453l-0.87695 2.0586-1.5352 1.4121-4.1484 1.0938-28.16 0.375-0.0723 17.279-0.0723 17.279 0.14258 0.40039 0.14257 0.40039h18.58v-24.047l3.6797 0.44922 1.1914 0.59961 1.1914 0.60156 2.5781 3.4883v0.37891l4.9883 9.2637 4.9922 9.2656h21.059v-0.40235l-9.0566-17.678-0.92188-1.3535-0.92382-1.3535-3.5391-3.8242-3.3184-1.582 0.96094-0.3457 1.832-0.66992 1.832-0.67188 3.8066-2.8027 2.5645-3.3965 0.61914-1.4492 0.62109-1.4492 0.36133-1.6875 0.36328-1.6855-0.0117-4.9297-0.47265-2.0059-0.47266-2.0059-1.6699-3.2949-3.127-3.3066-3.1602-1.7188-5.0078-1.4004zm-95.199 0.01758-38.08 0.17773-0.06641 29.189-0.06641 29.189 0.49805 0.30859 18.676-12.875v-11.412l8.4785 0.03516 4.9082 0.51562 1.2266 0.63477 1.2266 0.63672 0.60156 1.0312 0.60156 1.0293-0.0156 1.7031-0.0156 1.7031-0.50781 0.98047-0.50586 0.98242-1.6602 1.1484-0.61719 0.56836-0.61719 0.56641-17.02 11.842-1.2051 0.64648v0.61719h10.488l10.488-2e-3 5.4238-0.64649 4.7988-1.0176 3.6562-1.9316 3.4707-3.6387 1.7695-3.4844 0.42773-1.6016 0.42773-1.5996v-6.0801l-0.42578-1.5996-0.42773-1.5996-1.4356-2.8086-3.0586-3.0586-3.4258-1.7363-2.1973-0.75976 3.459-1.9531 2.7754-3.0098 0.94531-2.0195 0.94531-2.0215 0.1875-2.6758 0.1875-2.6777-0.51367-2-0.51367-1.998-0.6875-1.3477-0.68555-1.3457-1.7676-1.8535-1.7676-1.8516-1.8867-0.94336-1.8848-0.94141zm246.56 0.0098-18.721 0.16797-0.16406 58.24 0.15234 0.40039 0.15235 0.40039h18.58zm63.998 0.0059-55.84 0.16406v14.398l18.4 0.16992 0.0117 7.2754 0.0117 7.2754-0.0234 14.734-0.0234 14.736 0.22461 0.22461 0.22656 0.22461h18.453v-44.479h18.559zm-151.84 0.16211-0.0801 29.121-0.0801 29.119 0.29882 0.80078h17.301l0.0117-15.76 0.0117-15.76 0.76172 0.93164 0.76367 0.93359 0.42578 0.82812 0.42579 0.82617 1.1191 1.2402v0.78711l0.54101 0.21289 8.6914 12.799 4.3672 6.3203 0.1289 0.35937 0.12696 0.36133 0.39062 0.32032 3.3535 4.9043v0.69531h18.24v-58.918l-0.79883 0.49219-8 5.5781-1.2812 0.93555-1.2793 0.93555-6.5508 4.5977-0.16992 18.451-21.184-31.113zm-177.76 11.902 10.898 0.36914 2.8027 1.3574 1.0195 2.1484v3.2422l-0.51758 1.082-0.51563 1.084-1.8066 1.0684-4.6797 0.60742-3.5996 0.0098h-2e-3l-3.5996 0.0098zm75.898 1.3008 4.5156 1.7715 2.5312 2.5312 1.5957 3.4844 0.97656 5.5703-0.35547 8-0.3789 1.7598-0.37891 1.7598-1.7363 3.8418-2.584 2.3223-3.627 1.3574-2.7871-0.0234-2.7891-0.0215-2.8789-0.91602-2.8809-2.1309-1.7695-2.5547-1.2774-3.6387-0.35351-2.4766-0.35352-2.4785 0.19141-3.6797 0.18945-3.6797 0.45703-1.6797 0.45703-1.6777 0.73242-1.5137 0.73243-1.5137 2.6113-2.6094 3.1836-1.543zm235.15 48.717-30.861 0.0156h30.861z" fill="#f0f"/></g></svg>
